<?xml version="1.0" encoding="UTF-8" standalone="no"?>
<svg
   xmlns:dc="http://purl.org/dc/elements/1.1/"
   xmlns:cc="http://creativecommons.org/ns#"
   xmlns:rdf="http://www.w3.org/1999/02/22-rdf-syntax-ns#"
   xmlns:svg="http://www.w3.org/2000/svg"
   xmlns="http://www.w3.org/2000/svg"
   xmlns:sodipodi="http://sodipodi.sourceforge.net/DTD/sodipodi-0.dtd"
   xmlns:inkscape="http://www.inkscape.org/namespaces/inkscape"
   viewBox="0 0 127.20118 93.80525"
   version="1.1"
   id="svg3742"
   sodipodi:docname="bitsnpieceshome.svg"
   width="127.20117"
   height="93.805252"
   inkscape:version="0.92.4 (5da689c313, 2019-01-14)">
  <metadata
     id="metadata3748">
    <rdf:RDF>
      <cc:Work
         rdf:about="">
        <dc:format>image/svg+xml</dc:format>
        <dc:type
           rdf:resource="http://purl.org/dc/dcmitype/StillImage" />
        <dc:title />
      </cc:Work>
    </rdf:RDF>
  </metadata>
  <defs
     id="defs3746">
    <marker
       inkscape:isstock="true"
       style="overflow:visible;"
       id="marker1412"
       refX="0.0"
       refY="0.0"
       orient="auto"
       inkscape:stockid="Arrow1Lend">
      <path
         transform="scale(0.8) rotate(180) translate(12.5,0)"
         style="fill-rule:evenodd;stroke:#7c4d02;stroke-width:1pt;stroke-opacity:1;fill:#7c4d02;fill-opacity:1"
         d="M 0.0,0.0 L 5.0,-5.0 L -12.5,0.0 L 5.0,5.0 L 0.0,0.0 z "
         id="path1410" />
    </marker>
    <marker
       inkscape:isstock="true"
       style="overflow:visible;"
       id="marker1354"
       refX="0.0"
       refY="0.0"
       orient="auto"
       inkscape:stockid="Arrow1Lend">
      <path
         transform="scale(0.8) rotate(180) translate(12.5,0)"
         style="fill-rule:evenodd;stroke:#7c4d02;stroke-width:1pt;stroke-opacity:1;fill:#7c4d02;fill-opacity:1"
         d="M 0.0,0.0 L 5.0,-5.0 L -12.5,0.0 L 5.0,5.0 L 0.0,0.0 z "
         id="path1352" />
    </marker>
    <marker
       inkscape:isstock="true"
       style="overflow:visible;"
       id="marker1302"
       refX="0.0"
       refY="0.0"
       orient="auto"
       inkscape:stockid="Arrow1Lend">
      <path
         transform="scale(0.8) rotate(180) translate(12.5,0)"
         style="fill-rule:evenodd;stroke:#7c4d02;stroke-width:1pt;stroke-opacity:1;fill:#7c4d02;fill-opacity:1"
         d="M 0.0,0.0 L 5.0,-5.0 L -12.5,0.0 L 5.0,5.0 L 0.0,0.0 z "
         id="path1300" />
    </marker>
    <marker
       inkscape:isstock="true"
       style="overflow:visible;"
       id="marker1256"
       refX="0.0"
       refY="0.0"
       orient="auto"
       inkscape:stockid="Arrow1Lend">
      <path
         transform="scale(0.8) rotate(180) translate(12.5,0)"
         style="fill-rule:evenodd;stroke:#7c4d02;stroke-width:1pt;stroke-opacity:1;fill:#7c4d02;fill-opacity:1"
         d="M 0.0,0.0 L 5.0,-5.0 L -12.5,0.0 L 5.0,5.0 L 0.0,0.0 z "
         id="path1254" />
    </marker>
    <marker
       inkscape:isstock="true"
       style="overflow:visible;"
       id="marker1216"
       refX="0.0"
       refY="0.0"
       orient="auto"
       inkscape:stockid="Arrow1Lend">
      <path
         transform="scale(0.8) rotate(180) translate(12.5,0)"
         style="fill-rule:evenodd;stroke:#7c4d02;stroke-width:1pt;stroke-opacity:1;fill:#7c4d02;fill-opacity:1"
         d="M 0.0,0.0 L 5.0,-5.0 L -12.5,0.0 L 5.0,5.0 L 0.0,0.0 z "
         id="path1214" />
    </marker>
    <marker
       inkscape:isstock="true"
       style="overflow:visible;"
       id="marker1182"
       refX="0.0"
       refY="0.0"
       orient="auto"
       inkscape:stockid="Arrow1Lend">
      <path
         transform="scale(0.8) rotate(180) translate(12.5,0)"
         style="fill-rule:evenodd;stroke:#7c4d02;stroke-width:1pt;stroke-opacity:1;fill:#7c4d02;fill-opacity:1"
         d="M 0.0,0.0 L 5.0,-5.0 L -12.5,0.0 L 5.0,5.0 L 0.0,0.0 z "
         id="path1180" />
    </marker>
    <marker
       inkscape:isstock="true"
       style="overflow:visible;"
       id="marker1154"
       refX="0.0"
       refY="0.0"
       orient="auto"
       inkscape:stockid="Arrow1Lend">
      <path
         transform="scale(0.8) rotate(180) translate(12.5,0)"
         style="fill-rule:evenodd;stroke:#7c4d02;stroke-width:1pt;stroke-opacity:1;fill:#7c4d02;fill-opacity:1"
         d="M 0.0,0.0 L 5.0,-5.0 L -12.5,0.0 L 5.0,5.0 L 0.0,0.0 z "
         id="path1152" />
    </marker>
    <marker
       inkscape:isstock="true"
       style="overflow:visible;"
       id="marker1132"
       refX="0.0"
       refY="0.0"
       orient="auto"
       inkscape:stockid="Arrow1Lend">
      <path
         transform="scale(0.8) rotate(180) translate(12.5,0)"
         style="fill-rule:evenodd;stroke:#7c4d02;stroke-width:1pt;stroke-opacity:1;fill:#7c4d02;fill-opacity:1"
         d="M 0.0,0.0 L 5.0,-5.0 L -12.5,0.0 L 5.0,5.0 L 0.0,0.0 z "
         id="path1130" />
    </marker>
    <filter
       style="color-interpolation-filters:sRGB;"
       inkscape:label="Drop Shadow"
       id="filter6107">
      <feFlood
         flood-opacity="0.360784"
         flood-color="rgb(0,0,0)"
         result="flood"
         id="feFlood6097" />
      <feComposite
         in="flood"
         in2="SourceGraphic"
         operator="out"
         result="composite1"
         id="feComposite6099" />
      <feGaussianBlur
         in="composite1"
         stdDeviation="10.9"
         result="blur"
         id="feGaussianBlur6101" />
      <feOffset
         dx="0"
         dy="0"
         result="offset"
         id="feOffset6103" />
      <feComposite
         in="offset"
         in2="SourceGraphic"
         operator="atop"
         result="composite2"
         id="feComposite6105" />
    </filter>
  </defs>
  <sodipodi:namedview
     pagecolor="#ffffff"
     bordercolor="#666666"
     borderopacity="1"
     objecttolerance="10"
     gridtolerance="10"
     guidetolerance="10"
     inkscape:pageopacity="0"
     inkscape:pageshadow="2"
     inkscape:window-width="1858"
     inkscape:window-height="1057"
     id="namedview3744"
     showgrid="false"
     showguides="true"
     inkscape:guide-bbox="true"
     width="799px"
     fit-margin-top="5"
     fit-margin-right="5"
     fit-margin-bottom="5"
     fit-margin-left="5"
     inkscape:zoom="8.0000001"
     inkscape:cx="22.845586"
     inkscape:cy="60.987921"
     inkscape:window-x="-8"
     inkscape:window-y="-8"
     inkscape:window-maximized="1"
     inkscape:current-layer="layer2" />
  <g
     inkscape:groupmode="layer"
     id="layer1"
     inkscape:label="logo"
     style="display:inline"
     transform="translate(3.7042146,4.0759227)">
    <path
       style="fill:#faa61a;fill-opacity:1;stroke:#000000;stroke-width:0.5;stroke-linecap:square;stroke-linejoin:miter;stroke-miterlimit:3.4000001;stroke-dasharray:none;stroke-dashoffset:0;stroke-opacity:1;filter:url(#filter6107)"
       d="m 43.946176,1.1748327 c 0,0 -13.6,-0.29961004 -28,10.4003903 0,0 -14.4003906,25.900781 -14.4003906,57.800781 0,0 8.4,14.39961 30.4999996,15.09961 0,0 3.701171,-4.39922 6.701171,-8.19922 -12.699988,-3.8 -17.499999,-11.70117 -17.499999,-11.70117 0,0 0.998828,0.70117 2.798828,1.70117 0.1,0 0.200391,0.0992 0.400391,0.19922 0.3,0.2 0.600391,0.3 0.900391,0.5 2.5,1.4 4.998828,2.50039 7.298828,3.40039 4.100001,1.7 9.001171,3.19883 14.701171,4.29883 7.5,1.4 16.30039,1.90156 25.90039,0.10156 4.7,-0.9 9.5,-2.20078 14.5,-4.30078 3.5,-1.3 7.4,-3.20039 11.5,-5.90039 0,0 -5.00156,8.10078 -18.10156,11.80078 3,3.7 6.60156,8 6.60156,8 22.100004,-0.7 30.500004,-15.1 30.500004,-15 0,-31.9 -14.40039,-57.800781 -14.40039,-57.800781 C 89.546566,0.87522266 75.846566,1.1748327 75.846566,1.1748327 l -1.40039,1.601562 c 17,5.1 24.90039,12.5996103 24.90039,12.5996103 -10.4,-5.6000003 -20.59961,-8.4000003 -30.09961,-9.5000003 -7.2,-0.8 -14.10117,-0.600782 -20.20117,0.199218 -0.6,0 -1.09922,0.101172 -1.69922,0.201172 -3.5,0.4 -12.00117,1.598828 -22.701171,6.2988283 -3.7,1.6 -5.898438,2.800782 -5.898438,2.800782 0,0 8.199218,-7.9000003 26.199219,-13.0000003 z m 40.29297,39.4199213 c 2.25996,2.0135 3.70703,5.05805 3.70703,8.48047 0,6.1 -4.49922,11 -10.19922,11 -5.6,0 -10.20117,-4.9 -10.20117,-11 0,-1.08384 0.14838,-2.12791 0.41406,-3.11523 a 28.477114,11.621752 0 0 0 16.2793,-5.36524 z m -49.527345,0.0039 a 28.477114,11.621752 0 0 0 16.361325,5.38672 c 0.25444,0.97999 0.39067,2.01511 0.37305,3.08984 0,6.1 -4.49922,11 -10.19922,11 -5.6,0 -10.201171,-4.9 -10.201171,-11 0,-3.42085 1.417279,-6.46304 3.666016,-8.47656 z"
       id="path3738"
       inkscape:connector-curvature="0" />
  </g>
  <g
     inkscape:groupmode="layer"
     id="layer2"
     inkscape:label="scar"
     style="display:none">
    <path
       transform="translate(3.7042146,4.0759227)"
       style="display:inline;fill:none;fill-opacity:1;stroke:#7c4d02;stroke-width:0.5;stroke-linecap:butt;stroke-linejoin:round;stroke-miterlimit:4;stroke-dasharray:none;stroke-dashoffset:0;stroke-opacity:1;paint-order:normal"
       d="m 59.825976,5.6962677 -9.47699,28.1436063 15.55638,3.73083 -12.40063,37.69228"
       id="path5066"
       inkscape:connector-curvature="0"
       sodipodi:nodetypes="cccc" />
    <path
       transform="translate(3.7042146,4.0759227)"
       style="display:inline;fill:none;fill-opacity:1;stroke:#7c4d02;stroke-width:0.5;stroke-linecap:butt;stroke-linejoin:round;stroke-miterlimit:4;stroke-dasharray:none;stroke-dashoffset:0;stroke-opacity:1;paint-order:normal"
       d="m 54.752516,67.804494 c 2.02465,0.88028 2.02465,0.88028 2.02465,0.88028"
       id="path5068"
       inkscape:connector-curvature="0" />
    <path
       transform="translate(3.7042146,4.0759227)"
       style="display:inline;fill:none;fill-opacity:1;stroke:#7c4d02;stroke-width:0.5;stroke-linecap:butt;stroke-linejoin:round;stroke-miterlimit:4;stroke-dasharray:none;stroke-dashoffset:0;stroke-opacity:1;paint-order:normal"
       d="m 58.537726,54.160124 c 3.08099,1.32043 3.08099,1.32043 3.08099,1.32043"
       id="path5070"
       inkscape:connector-curvature="0" />
    <path
       transform="translate(3.7042146,4.0759227)"
       style="display:inline;fill:none;fill-opacity:1;stroke:#7c4d02;stroke-width:0.5;stroke-linecap:butt;stroke-linejoin:round;stroke-miterlimit:4;stroke-dasharray:none;stroke-dashoffset:0;stroke-opacity:1;paint-order:normal"
       d="m 63.027166,35.674214 c -2.37676,2.46479 -2.37676,2.46479 -2.37676,2.46479"
       id="path5072"
       inkscape:connector-curvature="0" />
    <path
       transform="translate(3.7042146,4.0759227)"
       style="display:inline;fill:none;fill-opacity:1;stroke:#7c4d02;stroke-width:0.5;stroke-linecap:butt;stroke-linejoin:round;stroke-miterlimit:4;stroke-dasharray:none;stroke-dashoffset:0;stroke-opacity:1;paint-order:normal"
       d="m 62.675046,43.772804 c 1.93662,1.40845 2.02465,1.40845 2.02465,1.40845"
       id="path5074"
       inkscape:connector-curvature="0" />
    <path
       transform="translate(3.7042146,4.0759227)"
       style="display:inline;fill:none;fill-opacity:1;stroke:#7c4d02;stroke-width:0.5;stroke-linecap:butt;stroke-linejoin:round;stroke-miterlimit:4;stroke-dasharray:none;stroke-dashoffset:0;stroke-opacity:1;paint-order:normal"
       d="m 53.608146,33.649564 c 0,2.28873 0,2.28873 0,2.28873"
       id="path5076"
       inkscape:connector-curvature="0" />
    <path
       transform="translate(3.7042146,4.0759227)"
       style="display:inline;fill:none;fill-opacity:1;stroke:#7c4d02;stroke-width:0.5;stroke-linecap:butt;stroke-linejoin:round;stroke-miterlimit:4;stroke-dasharray:none;stroke-dashoffset:0;stroke-opacity:1;paint-order:normal"
       d="m 50.615186,26.255194 c 3.69719,1.14437 3.69719,1.14437 3.69719,1.14437"
       id="path5078"
       inkscape:connector-curvature="0" />
    <path
       transform="translate(3.7042146,4.0759227)"
       style="display:inline;fill:none;fill-opacity:1;stroke:#7c4d02;stroke-width:0.5;stroke-linecap:butt;stroke-linejoin:round;stroke-miterlimit:4;stroke-dasharray:none;stroke-dashoffset:0;stroke-opacity:1;paint-order:normal"
       d="m 54.664486,16.924211 c 2.46479,1.760563 2.46479,1.760563 2.46479,1.760563"
       id="path5080"
       inkscape:connector-curvature="0" />
    <path
       transform="translate(3.7042146,4.0759227)"
       style="display:inline;fill:none;fill-opacity:1;stroke:#7c4d02;stroke-width:0.5;stroke-linecap:butt;stroke-linejoin:round;stroke-miterlimit:4;stroke-dasharray:none;stroke-dashoffset:0;stroke-opacity:1;paint-order:normal"
       d="m 59.506036,11.20238 c -3.34507,0.08803 -3.34507,0.176057 -3.34507,0.176057"
       id="path5082"
       inkscape:connector-curvature="0" />
  </g>
</svg>
